<svg width="1440" height="1206" viewBox="0 0 1440 1206" fill="none" xmlns="http://www.w3.org/2000/svg">
<g clip-path="url(#clip0_62_382)" filter="url(#filter0_f_62_382)">
<rect width="1440" height="606" transform="translate(0 300)" fill="#EEFFF2"/>
<path fill-rule="evenodd" clip-rule="evenodd" d="M1100.41 394.656C1209.55 430.112 1424.75 325.418 1424.75 325.418C1459.42 309.446 1653.76 221.708 1713.88 438.746C1735.03 515.09 1731.94 570.068 1729.46 614.261C1725.47 685.332 1723.04 728.516 1825.49 787.832C2026.92 720.13 2080.88 746.879 2082.68 768.716L1891.53 1098.89L1698.6 1072.86C1567.7 928.537 1543.88 827.185 1548.33 794.55C1558.21 744.545 1561.8 635.164 1497.07 597.686C1432.33 560.208 1322.96 590.046 1276.37 609.65C1166.79 669.863 936.04 757.799 889.721 627.842C843.401 497.885 831.461 197.911 831.281 64.168L978.434 -190C978.434 -190 923.576 337.205 1100.41 394.656Z" fill="#A4E6B2"/>
<path fill-rule="evenodd" clip-rule="evenodd" d="M362.291 525.12C269.201 458.386 38.9515 489.246 38.9515 489.246C2.09866 493.386 -204.008 514.921 -202.483 294.403C-201.947 216.834 -184.346 166.639 -170.197 126.289C-147.444 61.4003 -133.62 21.9729 -214.05 -64.8943C-421.462 -64.1918 -465.024 -105.764 -460.878 -126.637L-192.95 -374.713L-18.5888 -290.846C65.8523 -116.089 61.1464 -14.4263 48.2383 14.5607C25.5782 58.0283 -7.03726 158.685 43.7818 213.571C94.6008 268.457 205.368 274.515 254.399 270.683C373.488 248.548 613.863 238.085 622.651 373.317C631.439 508.55 562.459 791.334 526.871 915.822L320.617 1106.79C320.617 1106.79 513.128 633.252 362.291 525.12Z" fill="#C0E1FF"/>
<path fill-rule="evenodd" clip-rule="evenodd" d="M440.829 1178.56C570.312 1156.52 724.688 974.282 724.688 974.282C750.074 945.634 893.419 786.47 1078.94 931.31C1144.19 982.259 1172.89 1027.38 1195.97 1063.64C1233.07 1121.97 1255.61 1157.41 1392.22 1157.41C1554.23 1010.91 1623.58 1007.34 1638 1023.86V1374.25L1430.3 1442.35C1216.13 1387.87 1133.75 1318.28 1119.32 1290.29C1100.28 1246 1040.63 1157.41 954.314 1157.41C868.003 1157.41 776.037 1231.45 740.843 1268.47C666.224 1366.76 486.639 1542.83 365.249 1460.86C243.858 1378.88 58.5036 1145.95 -19 1039.73V770C-19 770 231.024 1214.27 440.829 1178.56Z" fill="#A4E6B2"/>
</g>
<defs>
<filter id="filter0_f_62_382" x="-300" y="0" width="2040" height="1206" filterUnits="userSpaceOnUse" color-interpolation-filters="sRGB">
<feFlood flood-opacity="0" result="BackgroundImageFix"/>
<feBlend mode="normal" in="SourceGraphic" in2="BackgroundImageFix" result="shape"/>
<feGaussianBlur stdDeviation="150" result="effect1_foregroundBlur_62_382"/>
</filter>
<clipPath id="clip0_62_382">
<rect width="1440" height="606" fill="white" transform="translate(0 300)"/>
</clipPath>
</defs>
</svg>
