<svg width="1440" height="900" viewBox="0 0 1440 900" fill="none" xmlns="http://www.w3.org/2000/svg">
<g clip-path="url(#clip0_389_800)" filter="url(#filter0_f_389_800)">
<rect width="1440" height="900" transform="translate(0 -1)" fill="#EEFFF2"/>
<path fill-rule="evenodd" clip-rule="evenodd" d="M1100.41 93.6558C1209.55 129.112 1424.75 24.4178 1424.75 24.4178C1459.42 8.44578 1653.76 -79.2916 1713.88 137.746C1735.03 214.09 1731.94 269.068 1729.46 313.261C1725.47 384.332 1723.04 427.516 1825.49 486.832C2026.92 419.13 2080.88 445.879 2082.68 467.716L1891.53 797.885L1698.6 771.862C1567.7 627.537 1543.88 526.185 1548.33 493.55C1558.21 443.545 1561.8 334.164 1497.07 296.686C1432.33 259.208 1322.96 289.046 1276.37 308.65C1166.79 368.863 936.04 456.799 889.721 326.842C843.401 196.885 831.461 -103.089 831.281 -236.832L978.434 -491C978.434 -491 923.576 36.2053 1100.41 93.6558Z" fill="#C7E4FD" fill-opacity="0.5"/>
<path fill-rule="evenodd" clip-rule="evenodd" d="M353.291 253.12C260.201 186.385 29.9516 217.246 29.9516 217.246C-6.90128 221.386 -213.008 242.921 -211.483 22.403C-210.947 -55.166 -193.346 -105.361 -179.197 -145.711C-156.444 -210.6 -142.619 -250.027 -223.05 -336.894C-430.462 -336.192 -474.024 -377.764 -469.878 -398.638L-201.95 -646.713L-27.5888 -562.846C56.8523 -388.089 52.1464 -286.426 39.2383 -257.439C16.5782 -213.972 -16.0372 -113.315 34.7818 -58.429C85.6008 -3.54307 196.368 2.51483 245.399 -1.31694C364.488 -23.4525 604.863 -33.9155 613.651 101.317C622.439 236.55 553.459 519.334 517.871 643.821L311.617 834.793C311.617 834.793 504.128 361.252 353.291 253.12Z" fill="#A4E6B2" fill-opacity="0.5"/>
<path fill-rule="evenodd" clip-rule="evenodd" d="M1193.29 599.12C1100.2 532.385 869.952 563.246 869.952 563.246C833.099 567.386 626.992 588.921 628.517 368.403C629.053 290.834 646.654 240.639 660.803 200.289C683.556 135.4 697.381 95.9728 616.95 9.10557C409.538 9.80809 365.976 -31.7638 370.122 -52.6376L638.05 -300.713L812.411 -216.846C896.852 -42.0894 892.146 59.5736 879.238 88.5605C856.578 132.028 823.963 232.685 874.782 287.571C925.601 342.457 1036.37 348.515 1085.4 344.683C1204.49 322.547 1444.86 312.084 1453.65 447.317C1462.44 582.55 1393.46 865.334 1357.87 989.821L1151.62 1180.79C1151.62 1180.79 1344.13 707.252 1193.29 599.12Z" fill="#A4E6B2" fill-opacity="0.5"/>
<path fill-rule="evenodd" clip-rule="evenodd" d="M328.565 718.039C456.448 747.999 669.469 639.987 669.469 639.987C703.985 623.442 897.88 532.415 1012.61 737.919C1052.97 810.206 1061.9 862.928 1069.08 905.309C1080.63 973.464 1087.65 1014.88 1213.54 1067.91C1419.72 995.799 1485.01 1019.43 1491.89 1040.26L1355.85 1363.17L1138.01 1345.28C961.794 1211.93 912.886 1115.81 910.46 1084.42C910.11 1036.21 889.527 931.408 809.986 897.899C730.444 864.389 616.946 896.92 570.139 917.374C463.215 978.979 229.358 1071.52 149.316 948.845C69.2751 826.17 -11.1075 539.549 -41.2937 411.573L63.4268 163C63.4268 163 121.354 669.495 328.565 718.039Z" fill="#C0DFFB" fill-opacity="0.5"/>
</g>
<defs>
<filter id="filter0_f_389_800" x="-300" y="-301" width="2040" height="1500" filterUnits="userSpaceOnUse" color-interpolation-filters="sRGB">
<feFlood flood-opacity="0" result="BackgroundImageFix"/>
<feBlend mode="normal" in="SourceGraphic" in2="BackgroundImageFix" result="shape"/>
<feGaussianBlur stdDeviation="150" result="effect1_foregroundBlur_389_800"/>
</filter>
<clipPath id="clip0_389_800">
<rect width="1440" height="900" fill="white" transform="translate(0 -1)"/>
</clipPath>
</defs>
</svg>
